<svg xmlns="http://www.w3.org/2000/svg" width="32" height="32"><path d="m29.591 4.998-8.93 8.935-.547-.549-2.076-2.077 8.93-8.935a1.855 1.855 0 0 1 2.624 0c.744.705.744 1.881 0 2.626zM13.885 26.279a6.438 6.438 0 0 1-1.371 2.038 6.259 6.259 0 0 1-6.619 1.45h.039c.156-.039.313-.078.509-.118.039 0 .079-.039.117-.039.196-.039.353-.117.549-.196.039 0 .078-.039.117-.039.196-.078.352-.157.548-.235h.039c.196-.079.392-.196.548-.313.039-.039.079-.039.118-.079a6.29 6.29 0 0 0 .548-.353c.039 0 .039-.039.078-.039.157-.117.353-.235.51-.392.039-.039.078-.039.078-.079.196-.156.353-.313.549-.47l.117-.118a6.67 6.67 0 0 0 .548-.509c.666-.667 1.254-1.41 1.763-2.115l5.17-7.879-3.956 9.485zm-8.382 2.272c-.039 0-.078 0-.117.039-.078 0-.196.039-.274.039h-.429c-.079 0-.196 0-.274-.039-.039 0-.078 0-.078-.039-.039 0-.079-.039-.118-.039l12.925-12.933-5.405 8.347a12.162 12.162 0 0 1-1.606 1.96c-.157.157-.313.275-.469.43a.546.546 0 0 1-.157.119c-.117.077-.234.195-.313.273-.039.04-.117.079-.157.119-.118.077-.196.156-.314.235-.039.039-.117.079-.157.117-.117.079-.196.157-.313.196-.039.039-.118.079-.157.117a1.558 1.558 0 0 1-.353.196c-.039.04-.078.04-.117.079-.313.157-.588.313-.901.431-.039 0-.079.039-.118.039-.117.039-.196.079-.313.117-.039 0-.079.039-.118.039a.728.728 0 0 1-.274.078c-.039 0-.078.04-.117.04-.078.039-.196.039-.274.039h-.001zM3.35 27.65c0-.039 0-.039-.039-.079 0-.079-.039-.156-.039-.275v-.352c.039-.04.039-.079.039-.118 0-.078 0-.157.039-.235 0-.039 0-.079.039-.156 0-.079.039-.157.039-.236 0-.039.039-.117.039-.156.039-.079.039-.157.079-.236 0-.039.039-.117.039-.156.039-.079.078-.197.117-.275.039-.04.039-.079.039-.157.039-.117.117-.235.156-.392 0 0 0-.039.04-.039.078-.157.156-.275.235-.432.039-.039.039-.078.078-.156.079-.118.118-.196.196-.314.039-.039.079-.118.118-.157.078-.079.117-.196.196-.275.039-.079.078-.117.117-.196.079-.079.157-.196.235-.275.039-.078.078-.117.156-.196.079-.117.157-.196.274-.313.039-.039.079-.117.118-.156.157-.157.274-.315.43-.471a12.65 12.65 0 0 1 1.958-1.608l8.265-5.408L3.388 27.764c0-.039-.039-.079-.039-.117zm-.314-3.606c-.039.079-.078.196-.117.275-.039.117-.117.235-.157.353-.039.078-.079.157-.118.275l-.117.353c-.039.079-.039.157-.079.235l-.117.353c0 .039-.039.117-.039.157a6.236 6.236 0 0 1 1.371-6.623c.588-.588 1.254-1.058 2.037-1.372l9.556-3.919-7.833 5.134a11.009 11.009 0 0 0-2.115 1.764c-.196.196-.392.392-.549.588a.716.716 0 0 0-.156.196c-.119.119-.235.275-.353.392-.078.079-.117.157-.196.236-.078.117-.196.235-.274.352a.636.636 0 0 0-.156.275l-.235.353c-.039.078-.118.196-.157.275-.078.117-.117.235-.196.352zM30.452 1.548c-1.214-1.176-3.133-1.176-4.308 0l-9.36 9.367a.566.566 0 0 0 0 .822l.313.314-11.828 4.937c-.901.392-1.723.901-2.429 1.607-2.898 2.9-2.898 7.642 0 10.542a7.451 7.451 0 0 0 5.249 2.195 7.38 7.38 0 0 0 5.248-2.195 7.09 7.09 0 0 0 1.606-2.43l4.934-11.875.353.353a.589.589 0 0 0 .43.156.593.593 0 0 0 .432-.156l9.36-9.327c1.175-1.215 1.175-3.135 0-4.311z"/></svg>